<?xml version="1.0" standalone="no"?>
<!DOCTYPE svg PUBLIC "-//W3C//DTD SVG 20010904//EN"
 "http://www.w3.org/TR/2001/REC-SVG-20010904/DTD/svg10.dtd">
<svg version="1.0" xmlns="http://www.w3.org/2000/svg"
 width="1280.000000pt" height="1280.000000pt" viewBox="0 0 1280.000000 1280.000000"
 preserveAspectRatio="xMidYMid meet">
<metadata>
Created by potrace 1.15, written by Peter Selinger 2001-2017
</metadata>
<g transform="translate(0.000000,1280.000000) scale(0.100000,-0.100000)"
fill="#000000" stroke="none">
<path d="M3448 10136 l-2816 -1751 241 -6 c133 -4 888 -9 1677 -13 789 -4
2171 -11 3070 -16 899 -5 2544 -14 3655 -19 1111 -6 2250 -13 2530 -16 324 -4
506 -3 500 3 -8 9 -5866 3471 -5995 3544 l-45 25 -2817 -1751z"/>
<path d="M1977 8272 c-16 -17 -17 -219 -17 -2705 l0 -2687 -404 0 -405 0 -15
-22 c-23 -32 -23 -254 0 -286 l15 -22 1494 0 c1467 0 1494 0 1505 19 13 25 13
271 0 291 -8 13 -69 16 -417 20 l-408 5 -2 2690 c-3 2513 -4 2691 -20 2703
-13 9 -162 12 -663 12 -614 0 -648 -1 -663 -18z"/>
<path d="M5810 8273 c-41 -15 -40 82 -40 -2720 l0 -2683 -398 0 c-374 0 -400
-1 -415 -18 -14 -15 -17 -42 -17 -155 0 -129 1 -137 22 -151 20 -14 178 -16
1493 -16 1315 0 1473 2 1493 16 21 14 22 22 22 153 0 121 -2 140 -18 154 -17
15 -60 17 -415 17 l-397 0 0 2683 c0 2301 -2 2686 -14 2703 -14 18 -34 19
-658 21 -354 1 -650 -1 -658 -4z"/>
<path d="M9386 8228 c-14 -20 -16 -293 -16 -2705 l0 -2683 -396 0 c-253 0
-402 -4 -415 -10 -17 -10 -19 -23 -19 -153 0 -98 4 -147 12 -155 17 -17 2989
-17 3006 0 8 8 12 57 12 155 0 130 -2 143 -19 153 -13 6 -162 10 -415 10
l-396 0 0 2683 c0 2412 -2 2685 -16 2705 l-15 22 -654 0 -654 0 -15 -22z"/>
<path d="M1074 2406 c-18 -14 -19 -31 -22 -339 -3 -309 -2 -325 17 -348 l19
-24 5264 -2 c4230 -2 5268 0 5288 10 l25 13 3 333 c2 300 1 336 -14 353 -17
17 -179 18 -5289 18 -4535 0 -5274 -2 -5291 -14z"/>
</g>
</svg>
